<svg width="55" height="44" viewBox="0 0 55 44" fill="none" xmlns="http://www.w3.org/2000/svg">
<g clip-path="url(#clip0_81_166)">
<path d="M55 41.0494C55 42.5521 53.7685 43.7708 52.25 43.7708H46.75C45.2315 43.7708 44 42.5521 44 41.0494V13.8359H55V41.0494ZM5.22844 24.7213C3.6936 23.2424 2.75 21.5458 2.75 19.7115C2.75 15.2161 6.34133 11.7354 10.3056 9.25977C13.9098 7.0087 17.2348 4.34688 19.9272 1.077L20.625 0.229126L21.3228 1.077C24.0152 4.34688 27.3393 7.00955 30.9444 9.25977C34.9087 11.7354 38.5 15.2161 38.5 19.7115C38.5 21.5458 37.5564 23.2424 36.0216 24.7213H5.22844ZM2.75 27.4427H38.5C40.0185 27.4427 41.25 28.6613 41.25 30.164V41.0494C41.25 42.5521 40.0185 43.7708 38.5 43.7708H35.75V38.3281C35.75 36.8254 34.5185 35.6067 33 35.6067C31.4815 35.6067 30.25 36.8254 30.25 38.3281V43.7708H24.75V37.6477C24.75 33.5657 20.625 31.5247 20.625 31.5247C20.625 31.5247 16.5 33.5657 16.5 37.6477V43.7708H11V38.3281C11 36.8254 9.76852 35.6067 8.25 35.6067C6.73148 35.6067 5.5 36.8254 5.5 38.3281V43.7708H2.75C1.23148 43.7708 0 42.5521 0 41.0494V30.164C0 28.6613 1.23148 27.4427 2.75 27.4427ZM49.5 0.229126C49.5 0.229126 55 2.95048 55 8.39319V11.1145H44V8.39319C44 2.95048 49.5 0.229126 49.5 0.229126Z" fill="#124E38"/>
</g>
<defs>
<clipPath id="clip0_81_166">
<rect width="55" height="43.5417" fill="white" transform="matrix(-1 0 0 1 55 0.229126)"/>
</clipPath>
</defs>
</svg>
