<svg width="64" height="63" viewBox="0 0 64 63" fill="none" xmlns="http://www.w3.org/2000/svg">
<g filter="url(#filter0_d_84_294)">
<ellipse cx="31" cy="31.0109" rx="22.5" ry="22.0109" fill="#FAFAFA"/>
</g>
<path d="M26.3 21.0107H34.7C37.9 21.0107 40.5 23.6107 40.5 26.8107V35.2107C40.5 36.749 39.8889 38.2243 38.8012 39.312C37.7135 40.3997 36.2383 41.0107 34.7 41.0107H26.3C23.1 41.0107 20.5 38.4107 20.5 35.2107V26.8107C20.5 25.2725 21.1111 23.7972 22.1988 22.7095C23.2865 21.6218 24.7617 21.0107 26.3 21.0107ZM26.1 23.0107C25.1452 23.0107 24.2295 23.39 23.5544 24.0652C22.8793 24.7403 22.5 25.656 22.5 26.6107V35.4107C22.5 37.4007 24.11 39.0107 26.1 39.0107H34.9C35.8548 39.0107 36.7705 38.6315 37.4456 37.9563C38.1207 37.2812 38.5 36.3655 38.5 35.4107V26.6107C38.5 24.6207 36.89 23.0107 34.9 23.0107H26.1ZM35.75 24.5107C36.0815 24.5107 36.3995 24.6424 36.6339 24.8769C36.8683 25.1113 37 25.4292 37 25.7607C37 26.0923 36.8683 26.4102 36.6339 26.6446C36.3995 26.879 36.0815 27.0107 35.75 27.0107C35.4185 27.0107 35.1005 26.879 34.8661 26.6446C34.6317 26.4102 34.5 26.0923 34.5 25.7607C34.5 25.4292 34.6317 25.1113 34.8661 24.8769C35.1005 24.6424 35.4185 24.5107 35.75 24.5107ZM30.5 26.0107C31.8261 26.0107 33.0979 26.5375 34.0355 27.4752C34.9732 28.4129 35.5 29.6847 35.5 31.0107C35.5 32.3368 34.9732 33.6086 34.0355 34.5463C33.0979 35.484 31.8261 36.0107 30.5 36.0107C29.1739 36.0107 27.9021 35.484 26.9645 34.5463C26.0268 33.6086 25.5 32.3368 25.5 31.0107C25.5 29.6847 26.0268 28.4129 26.9645 27.4752C27.9021 26.5375 29.1739 26.0107 30.5 26.0107ZM30.5 28.0107C29.7044 28.0107 28.9413 28.3268 28.3787 28.8894C27.8161 29.452 27.5 30.2151 27.5 31.0107C27.5 31.8064 27.8161 32.5695 28.3787 33.1321C28.9413 33.6947 29.7044 34.0107 30.5 34.0107C31.2956 34.0107 32.0587 33.6947 32.6213 33.1321C33.1839 32.5695 33.5 31.8064 33.5 31.0107C33.5 30.2151 33.1839 29.452 32.6213 28.8894C32.0587 28.3268 31.2956 28.0107 30.5 28.0107Z" fill="black"/>
<defs>
<filter id="filter0_d_84_294" x="0.5" y="0" width="63" height="62.022" filterUnits="userSpaceOnUse" color-interpolation-filters="sRGB">
<feFlood flood-opacity="0" result="BackgroundImageFix"/>
<feColorMatrix in="SourceAlpha" type="matrix" values="0 0 0 0 0 0 0 0 0 0 0 0 0 0 0 0 0 0 127 0" result="hardAlpha"/>
<feMorphology radius="1" operator="dilate" in="SourceAlpha" result="effect1_dropShadow_84_294"/>
<feOffset dx="1"/>
<feGaussianBlur stdDeviation="4"/>
<feColorMatrix type="matrix" values="0 0 0 0 0.560784 0 0 0 0 0.560784 0 0 0 0 0.560784 0 0 0 0.3 0"/>
<feBlend mode="normal" in2="BackgroundImageFix" result="effect1_dropShadow_84_294"/>
<feBlend mode="normal" in="SourceGraphic" in2="effect1_dropShadow_84_294" result="shape"/>
</filter>
</defs>
</svg>
