<svg width="53" height="54" viewBox="0 0 53 54" fill="none" xmlns="http://www.w3.org/2000/svg">
<rect y="0.0219727" width="53" height="53" rx="26.5" fill="#30CA92"/>
<path d="M37.2071 15.172C34.2143 12.172 30.2286 10.522 25.9929 10.522C17.25 10.522 10.1357 17.6363 10.1357 26.3791C10.1357 29.172 10.8643 31.9005 12.25 34.3077L10 42.522L18.4071 40.3148C20.7214 41.5791 23.3286 42.2434 25.9857 42.2434H25.9929C34.7286 42.2434 42 35.1291 42 26.3863C42 22.1505 40.2 18.172 37.2071 15.172ZM25.9929 39.572C23.6214 39.572 21.3 38.9363 19.2786 37.7363L18.8 37.4505L13.8143 38.7577L15.1429 33.8934L14.8286 33.3934C13.5071 31.2934 12.8143 28.872 12.8143 26.3791C12.8143 19.1148 18.7286 13.2005 26 13.2005C29.5214 13.2005 32.8286 14.572 35.3143 17.0648C37.8 19.5577 39.3286 22.8648 39.3214 26.3863C39.3214 33.6577 33.2571 39.572 25.9929 39.572ZM33.2214 29.7005C32.8286 29.5005 30.8786 28.5434 30.5143 28.4148C30.15 28.2791 29.8857 28.2148 29.6214 28.6148C29.3571 29.0148 28.6 29.9005 28.3643 30.172C28.1357 30.4363 27.9 30.472 27.5071 30.272C25.1786 29.1077 23.65 28.1934 22.1143 25.5577C21.7071 24.8577 22.5214 24.9077 23.2786 23.3934C23.4071 23.1291 23.3429 22.9005 23.2429 22.7005C23.1429 22.5005 22.35 20.5505 22.0214 19.7577C21.7 18.9863 21.3714 19.0934 21.1286 19.0791C20.9 19.0648 20.6357 19.0648 20.3714 19.0648C20.1071 19.0648 19.6786 19.1648 19.3143 19.5577C18.95 19.9577 17.9286 20.9148 17.9286 22.8648C17.9286 24.8148 19.35 26.7005 19.5429 26.9648C19.7429 27.2291 22.3357 31.2291 26.3143 32.9505C28.8286 34.0363 29.8143 34.1291 31.0714 33.9434C31.8357 33.8291 33.4143 32.9863 33.7429 32.0577C34.0714 31.1291 34.0714 30.3363 33.9714 30.172C33.8786 29.9934 33.6143 29.8934 33.2214 29.7005Z" fill="white"/>
</svg>
