<svg width="64" height="63" viewBox="0 0 64 63" fill="none" xmlns="http://www.w3.org/2000/svg">
<g filter="url(#filter0_d_84_317)">
<ellipse cx="31" cy="31.0109" rx="22.5" ry="22.0109" fill="#FAFAFA"/>
</g>
<path d="M34.35 27.1507C34.74 27.1507 35.12 27.1807 35.49 27.2307C34.81 24.2607 31.69 22.0107 27.94 22.0107C23.69 22.0107 20.24 24.8907 20.24 28.4407C20.24 30.4907 21.39 32.3007 23.18 33.4807L22.17 35.5107L24.93 34.3207C25.52 34.5307 26.14 34.7007 26.8 34.7907C26.71 34.4007 26.66 34.0007 26.66 33.5807C26.65 30.0407 30.1 27.1507 34.35 27.1507ZM30.5 24.9007C30.6261 24.9007 30.7509 24.9256 30.8674 24.9738C30.9838 25.0221 31.0897 25.0928 31.1788 25.1819C31.268 25.2711 31.3387 25.3769 31.3869 25.4934C31.4352 25.6098 31.46 25.7347 31.46 25.8607C31.46 25.9868 31.4352 26.1116 31.3869 26.2281C31.3387 26.3446 31.268 26.4504 31.1788 26.5396C31.0897 26.6287 30.9838 26.6994 30.8674 26.7477C30.7509 26.7959 30.6261 26.8207 30.5 26.8207C30.2454 26.8207 30.0012 26.7196 29.8212 26.5396C29.6411 26.3595 29.54 26.1153 29.54 25.8607C29.54 25.6061 29.6411 25.362 29.8212 25.1819C30.0012 25.0019 30.2454 24.9007 30.5 24.9007ZM25.37 26.8307C25.1154 26.8307 24.8712 26.7296 24.6912 26.5496C24.5111 26.3695 24.41 26.1253 24.41 25.8707C24.41 25.6161 24.5111 25.372 24.6912 25.1919C24.8712 25.0119 25.1154 24.9107 25.37 24.9107C25.6246 24.9107 25.8688 25.0119 26.0488 25.1919C26.2288 25.372 26.33 25.6161 26.33 25.8707C26.33 26.1253 26.2288 26.3695 26.0488 26.5496C25.8688 26.7296 25.6246 26.8307 25.37 26.8307Z" fill="black"/>
<path d="M40.7599 33.5809C40.7599 30.7409 37.8899 28.4409 34.3499 28.4409C30.8099 28.4409 27.9399 30.7409 27.9399 33.5809C27.9399 36.4209 30.8099 38.7209 34.3499 38.7209C34.9299 38.7209 35.4899 38.6409 36.0199 38.5209L39.4799 40.0109L38.2799 37.6109C39.7799 36.6709 40.7599 35.2309 40.7599 33.5809ZM32.4199 33.2609C32.2301 33.2609 32.0445 33.2046 31.8866 33.0991C31.7287 32.9936 31.6057 32.8437 31.533 32.6683C31.4604 32.4929 31.4413 32.2999 31.4784 32.1136C31.5154 31.9274 31.6069 31.7564 31.7411 31.6221C31.8754 31.4878 32.0464 31.3964 32.2327 31.3594C32.4189 31.3223 32.6119 31.3413 32.7873 31.414C32.9627 31.4867 33.1127 31.6097 33.2182 31.7676C33.3236 31.9254 33.3799 32.111 33.3799 32.3009C33.3899 32.8309 32.9499 33.2609 32.4199 33.2609ZM36.2699 33.2609C36.0153 33.2609 35.7712 33.1598 35.5911 32.9797C35.4111 32.7997 35.3099 32.5555 35.3099 32.3009C35.3099 32.0463 35.4111 31.8021 35.5911 31.6221C35.7712 31.4421 36.0153 31.3409 36.2699 31.3409C36.5246 31.3409 36.7687 31.4421 36.9488 31.6221C37.1288 31.8021 37.2299 32.0463 37.2299 32.3009C37.2299 32.5555 37.1288 32.7997 36.9488 32.9797C36.7687 33.1598 36.5246 33.2609 36.2699 33.2609Z" fill="black"/>
<defs>
<filter id="filter0_d_84_317" x="0.5" y="0" width="63" height="62.022" filterUnits="userSpaceOnUse" color-interpolation-filters="sRGB">
<feFlood flood-opacity="0" result="BackgroundImageFix"/>
<feColorMatrix in="SourceAlpha" type="matrix" values="0 0 0 0 0 0 0 0 0 0 0 0 0 0 0 0 0 0 127 0" result="hardAlpha"/>
<feMorphology radius="1" operator="dilate" in="SourceAlpha" result="effect1_dropShadow_84_317"/>
<feOffset dx="1"/>
<feGaussianBlur stdDeviation="4"/>
<feColorMatrix type="matrix" values="0 0 0 0 0.560784 0 0 0 0 0.560784 0 0 0 0 0.560784 0 0 0 0.3 0"/>
<feBlend mode="normal" in2="BackgroundImageFix" result="effect1_dropShadow_84_317"/>
<feBlend mode="normal" in="SourceGraphic" in2="effect1_dropShadow_84_317" result="shape"/>
</filter>
</defs>
</svg>
