<svg width="64" height="63" viewBox="0 0 64 63" fill="none" xmlns="http://www.w3.org/2000/svg">
<g filter="url(#filter0_d_84_293)">
<ellipse cx="31" cy="31.0109" rx="22.5" ry="22.0109" fill="#FAFAFA"/>
</g>
<path d="M35.0999 24.8307C34.4165 24.0503 34.0398 23.0481 34.0399 22.0107H30.9499V34.4107C30.9266 35.0819 30.6434 35.7178 30.1602 36.1842C29.677 36.6507 29.0315 36.9111 28.3599 36.9107C26.9399 36.9107 25.7599 35.7507 25.7599 34.3107C25.7599 32.5907 27.4199 31.3007 29.1299 31.8307V28.6707C25.6799 28.2107 22.6599 30.8907 22.6599 34.3107C22.6599 37.6407 25.4199 40.0107 28.3499 40.0107C31.4899 40.0107 34.0399 37.4607 34.0399 34.3107V28.0207C35.2929 28.9206 36.7973 29.4034 38.3399 29.4007V26.3107C38.3399 26.3107 36.4599 26.4007 35.0999 24.8307Z" fill="black"/>
<defs>
<filter id="filter0_d_84_293" x="0.5" y="0" width="63" height="62.022" filterUnits="userSpaceOnUse" color-interpolation-filters="sRGB">
<feFlood flood-opacity="0" result="BackgroundImageFix"/>
<feColorMatrix in="SourceAlpha" type="matrix" values="0 0 0 0 0 0 0 0 0 0 0 0 0 0 0 0 0 0 127 0" result="hardAlpha"/>
<feMorphology radius="1" operator="dilate" in="SourceAlpha" result="effect1_dropShadow_84_293"/>
<feOffset dx="1"/>
<feGaussianBlur stdDeviation="4"/>
<feColorMatrix type="matrix" values="0 0 0 0 0.560784 0 0 0 0 0.560784 0 0 0 0 0.560784 0 0 0 0.3 0"/>
<feBlend mode="normal" in2="BackgroundImageFix" result="effect1_dropShadow_84_293"/>
<feBlend mode="normal" in="SourceGraphic" in2="effect1_dropShadow_84_293" result="shape"/>
</filter>
</defs>
</svg>
