<svg width="55" height="55" viewBox="0 0 55 55" fill="none" xmlns="http://www.w3.org/2000/svg">
<path d="M6.87504 9.31567H18.3334C18.9412 9.31567 19.5241 9.55712 19.9538 9.98689C20.3836 10.4167 20.625 10.9996 20.625 11.6073V43.6907C20.625 44.2985 20.3836 44.8814 19.9538 45.3111C19.5241 45.7409 18.9412 45.9823 18.3334 45.9823H6.87504C6.26725 45.9823 5.68436 45.7409 5.25459 45.3111C4.82482 44.8814 4.58337 44.2985 4.58337 43.6907V11.6073C4.58337 10.9996 4.82482 10.4167 5.25459 9.98689C5.68436 9.55712 6.26725 9.31567 6.87504 9.31567ZM6.87504 34.524V39.1073H11.4584V34.524H6.87504ZM27.5 16.1907H45.8334C47.0489 16.1907 48.2147 16.6736 49.0743 17.5331C49.9338 18.3926 50.4167 19.5584 50.4167 20.774V34.524C50.4167 35.7396 49.9338 36.9054 49.0743 37.7649C48.2147 38.6245 47.0489 39.1073 45.8334 39.1073H27.5C26.2845 39.1073 25.1187 38.6245 24.2591 37.7649C23.3996 36.9054 22.9167 35.7396 22.9167 34.524V20.774C22.9167 19.5584 23.3996 18.3926 24.2591 17.5331C25.1187 16.6736 26.2845 16.1907 27.5 16.1907ZM32.0834 41.399H41.25C41.8578 41.399 42.4407 41.6405 42.8705 42.0702C43.3003 42.5 43.5417 43.0829 43.5417 43.6907C43.5417 44.2985 43.3003 44.8814 42.8705 45.3111C42.4407 45.7409 41.8578 45.9823 41.25 45.9823H32.0834C31.4756 45.9823 30.8927 45.7409 30.4629 45.3111C30.0331 44.8814 29.7917 44.2985 29.7917 43.6907C29.7917 43.0829 30.0331 42.5 30.4629 42.0702C30.8927 41.6405 31.4756 41.399 32.0834 41.399Z" fill="#124E38"/>
</svg>
