<svg width="55" height="55" viewBox="0 0 55 55" fill="none" xmlns="http://www.w3.org/2000/svg">
<path d="M43.5417 20.6251C41.3647 20.6251 39.474 19.9758 37.8699 18.6772C36.2657 17.3786 35.1963 15.7362 34.6615 13.7501H20.2813C19.8612 15.3542 19.069 16.7392 17.9049 17.9049C16.7407 19.0706 15.3558 19.8627 13.7501 20.2813V34.6615C15.7362 35.1963 17.3786 36.2657 18.6772 37.8699C19.9758 39.474 20.6251 41.3647 20.6251 43.5417C20.6251 46.0626 19.7275 48.2206 17.9324 50.0157C16.1372 51.8108 13.9792 52.7084 11.4584 52.7084C8.93758 52.7084 6.77959 51.8108 4.98446 50.0157C3.18932 48.2206 2.29175 46.0626 2.29175 43.5417C2.29175 41.3647 2.94105 39.474 4.23966 37.8699C5.53828 36.2657 7.18064 35.1963 9.16675 34.6615V20.2813C7.18064 19.7466 5.53828 18.6772 4.23966 17.073C2.94105 15.4688 2.29175 13.5973 2.29175 11.4584C2.29175 8.93758 3.18932 6.77959 4.98446 4.98446C6.77959 3.18932 8.93758 2.29175 11.4584 2.29175C13.5973 2.29175 15.4688 2.94105 17.073 4.23966C18.6772 5.53828 19.7466 7.18064 20.2813 9.16675H34.6615C35.1963 7.18064 36.2657 5.53828 37.8699 4.23966C39.474 2.94105 41.3647 2.29175 43.5417 2.29175C46.0626 2.29175 48.2206 3.18932 50.0157 4.98446C51.8108 6.77959 52.7084 8.93758 52.7084 11.4584C52.7084 13.9792 51.8108 16.1372 50.0157 17.9324C48.2206 19.7275 46.0626 20.6251 43.5417 20.6251ZM43.5417 52.7084C41.0209 52.7084 38.8629 51.8108 37.0678 50.0157C35.2726 48.2206 34.3751 46.0626 34.3751 43.5417C34.3751 41.0209 35.2726 38.8629 37.0678 37.0678C38.8629 35.2726 41.0209 34.3751 43.5417 34.3751C46.0626 34.3751 48.2206 35.2726 50.0157 37.0678C51.8108 38.8629 52.7084 41.0209 52.7084 43.5417C52.7084 46.0626 51.8108 48.2206 50.0157 50.0157C48.2206 51.8108 46.0626 52.7084 43.5417 52.7084Z" fill="#124E38"/>
</svg>
