<svg width="55" height="55" viewBox="0 0 55 55" fill="none" xmlns="http://www.w3.org/2000/svg">
<g clip-path="url(#clip0_81_182)">
<path d="M48.4781 0.61779C48.4781 0.61779 6.55096 0.604899 6.56299 0.61779C2.69838 0.61779 0.525879 2.61584 0.525879 6.69701V48.7772C0.525879 52.5954 2.47924 54.5943 6.34041 54.5943H48.5985C52.4596 54.5943 54.4156 52.6951 54.4156 48.7772V6.69701C54.4164 2.71467 52.4605 0.61779 48.4781 0.61779ZM26.4249 20.0869C26.4249 21.4069 25.2226 22.8206 23.662 22.8206V45.1085C23.662 48.2727 19.3496 48.2727 19.3496 45.1085V22.8206C17.8311 22.8206 16.5085 21.651 16.5085 19.8987V7.63287C16.5085 6.56552 18.0511 6.52427 18.0511 7.67498V16.7414H19.3428V7.59076C19.3428 6.61021 20.8286 6.54748 20.8286 7.63287V16.7414H22.1632V7.60365C22.1632 6.57841 23.6053 6.53716 23.6053 7.64404V16.7414H24.9184V7.60365C24.9184 6.58959 26.4249 6.5492 26.4249 7.64404V20.0869ZM37.9285 45.0982C37.9285 48.1928 33.6075 48.1464 33.6075 45.0982V31.3636H31.307V10.4834C31.307 5.62279 37.9293 5.62279 37.9293 10.4834V45.0982H37.9285Z" fill="#124E38"/>
</g>
<defs>
<clipPath id="clip0_81_182">
<rect width="55" height="55" fill="white"/>
</clipPath>
</defs>
</svg>
