<svg width="43" height="37" viewBox="0 0 43 37" fill="none" xmlns="http://www.w3.org/2000/svg">
<path d="M11.9523 0.912085C11.8609 0.820315 11.7522 0.7475 11.6326 0.697817C11.5129 0.648134 11.3846 0.622559 11.2551 0.622559C11.1255 0.622559 10.9972 0.648134 10.8776 0.697817C10.7579 0.7475 10.6493 0.820315 10.5578 0.912085L5.33406 6.10548L3.47195 4.29095C3.3805 4.19918 3.27183 4.12637 3.15218 4.07668C3.03252 4.027 2.90424 4.00143 2.77468 4.00143C2.64512 4.00143 2.51684 4.027 2.39719 4.07668C2.27754 4.12637 2.16887 4.19918 2.07742 4.29095L0.789526 5.58048C0.697756 5.67194 0.624942 5.7806 0.575258 5.90026C0.525575 6.01991 0.5 6.14819 0.5 6.27775C0.5 6.40731 0.525575 6.53559 0.575258 6.65524C0.624942 6.7749 0.697756 6.88356 0.789526 6.97502L4.69339 10.8633C4.88825 11.0485 5.14683 11.1518 5.41568 11.1518C5.68453 11.1518 5.9431 11.0485 6.13796 10.8633L7.41683 9.58197L13.3395 3.66013C13.524 3.47545 13.6283 3.22545 13.6297 2.96438C13.6311 2.70331 13.5294 2.45223 13.3469 2.2656L11.9523 0.912085ZM11.9523 13.9706C11.8609 13.8789 11.7522 13.8061 11.6326 13.7564C11.5129 13.7067 11.3846 13.6811 11.2551 13.6811C11.1255 13.6811 10.9972 13.7067 10.8776 13.7564C10.7579 13.8061 10.6493 13.8789 10.5578 13.9706L5.33406 19.1977L3.47195 17.3848C3.3805 17.293 3.27183 17.2202 3.15218 17.1705C3.03252 17.1208 2.90424 17.0953 2.77468 17.0953C2.64512 17.0953 2.51684 17.1208 2.39719 17.1705C2.27754 17.2202 2.16887 17.293 2.07742 17.3848L0.789526 18.6719C0.697756 18.7633 0.624942 18.872 0.575258 18.9916C0.525575 19.1113 0.5 19.2396 0.5 19.3691C0.5 19.4987 0.525575 19.627 0.575258 19.7466C0.624942 19.8663 0.697756 19.9749 0.789526 20.0664L4.68355 23.9629C4.87827 24.148 5.13671 24.2513 5.40542 24.2513C5.67414 24.2513 5.93258 24.148 6.1273 23.9629L7.41519 22.6758L13.3378 16.7515C13.5217 16.5681 13.6256 16.3195 13.627 16.0599C13.6284 15.8002 13.5271 15.5505 13.3452 15.3652L11.9523 13.9706ZM5.74996 28.1875C3.57695 28.1875 1.76406 29.9511 1.76406 32.125C1.76406 34.2988 3.57859 36.0625 5.74996 36.0625C6.79425 36.0625 7.79576 35.6476 8.53419 34.9092C9.27261 34.1708 9.68746 33.1693 9.68746 32.125C9.68746 31.0807 9.27261 30.0792 8.53419 29.3407C7.79576 28.6023 6.79425 28.1875 5.74996 28.1875ZM41.1875 29.5H17.5625C17.2144 29.5 16.8805 29.6383 16.6344 29.8844C16.3882 30.1305 16.25 30.4644 16.25 30.8125V33.4375C16.25 33.7856 16.3882 34.1194 16.6344 34.3656C16.8805 34.6117 17.2144 34.75 17.5625 34.75H41.1875C41.5356 34.75 41.8694 34.6117 42.1155 34.3656C42.3617 34.1194 42.5 33.7856 42.5 33.4375V30.8125C42.5 30.4644 42.3617 30.1305 42.1155 29.8844C41.8694 29.6383 41.5356 29.5 41.1875 29.5ZM41.1875 3.24998H17.5625C17.2144 3.24998 16.8805 3.38826 16.6344 3.6344C16.3882 3.88054 16.25 4.21438 16.25 4.56248V7.18748C16.25 7.53557 16.3882 7.86941 16.6344 8.11555C16.8805 8.36169 17.2144 8.49998 17.5625 8.49998H41.1875C41.5356 8.49998 41.8694 8.36169 42.1155 8.11555C42.3617 7.86941 42.5 7.53557 42.5 7.18748V4.56248C42.5 4.21438 42.3617 3.88054 42.1155 3.6344C41.8694 3.38826 41.5356 3.24998 41.1875 3.24998ZM41.1875 16.375H17.5625C17.2144 16.375 16.8805 16.5133 16.6344 16.7594C16.3882 17.0055 16.25 17.3394 16.25 17.6875V20.3125C16.25 20.6606 16.3882 20.9944 16.6344 21.2406C16.8805 21.4867 17.2144 21.625 17.5625 21.625H41.1875C41.5356 21.625 41.8694 21.4867 42.1155 21.2406C42.3617 20.9944 42.5 20.6606 42.5 20.3125V17.6875C42.5 17.3394 42.3617 17.0055 42.1155 16.7594C41.8694 16.5133 41.5356 16.375 41.1875 16.375Z" fill="#433F3E"/>
</svg>
