<svg width="55" height="56" viewBox="0 0 55 56" fill="none" xmlns="http://www.w3.org/2000/svg">
<path d="M33.7631 3.3645H21.2369C19.376 3.3645 17.8704 3.3645 16.6535 3.46763C15.3931 3.57534 14.2863 3.79992 13.2619 4.34075C11.6359 5.20507 10.3257 6.56259 9.51958 8.21825C9.00854 9.25867 8.79542 10.3816 8.69458 11.6718C8.59375 12.9299 8.59375 14.4837 8.59375 16.4201V39.5797C8.59375 41.5162 8.59375 43.0699 8.69229 44.328C8.79542 45.6183 9.00854 46.7412 9.51729 47.7816C10.3246 49.4379 11.6364 50.7955 13.2642 51.6591C14.2863 52.1999 15.3954 52.4245 16.6512 52.5299C17.6023 52.6124 18.7229 52.6308 20.0521 52.6353V36.0208C20.0521 34.3493 20.7161 32.7464 21.8979 31.5645C23.0798 30.3826 24.6828 29.7187 26.3542 29.7187H28.6458C30.3173 29.7187 31.9202 30.3826 33.1021 31.5645C34.284 32.7464 34.9479 34.3493 34.9479 36.0208V52.6353C36.0824 52.6453 37.2169 52.6109 38.3487 52.5322C39.6069 52.4245 40.7138 52.1999 41.7358 51.6591C43.3627 50.7952 44.6737 49.4376 45.4804 47.7816C45.9915 46.7412 46.2046 45.6183 46.3054 44.3258C46.4062 43.0699 46.4062 41.5162 46.4062 39.582V16.4201C46.4062 14.4837 46.4063 12.9299 46.3077 11.6718C46.2069 10.3816 45.9915 9.25867 45.4827 8.21825C44.6754 6.5619 43.3636 5.2043 41.7358 4.34075C40.7138 3.79992 39.6046 3.57534 38.3487 3.46992C37.1296 3.3645 35.624 3.3645 33.7654 3.3645M16.6146 14.2499C16.6146 13.7941 16.7957 13.3569 17.118 13.0346C17.4403 12.7123 17.8775 12.5312 18.3333 12.5312H22.9167C23.3725 12.5312 23.8097 12.7123 24.132 13.0346C24.4543 13.3569 24.6354 13.7941 24.6354 14.2499C24.6354 14.7058 24.4543 15.1429 24.132 15.4653C23.8097 15.7876 23.3725 15.9687 22.9167 15.9687H18.3333C17.8775 15.9687 17.4403 15.7876 17.118 15.4653C16.7957 15.1429 16.6146 14.7058 16.6146 14.2499ZM18.3333 21.6978H22.9167C23.3725 21.6978 23.8097 21.8789 24.132 22.2012C24.4543 22.5236 24.6354 22.9607 24.6354 23.4166C24.6354 23.8724 24.4543 24.3096 24.132 24.6319C23.8097 24.9543 23.3725 25.1353 22.9167 25.1353H18.3333C17.8775 25.1353 17.4403 24.9543 17.118 24.6319C16.7957 24.3096 16.6146 23.8724 16.6146 23.4166C16.6146 22.9607 16.7957 22.5236 17.118 22.2012C17.4403 21.8789 17.8775 21.6978 18.3333 21.6978ZM30.3646 14.2499C30.3646 13.7941 30.5457 13.3569 30.868 13.0346C31.1903 12.7123 31.6275 12.5312 32.0833 12.5312H36.6667C37.1225 12.5312 37.5597 12.7123 37.882 13.0346C38.2043 13.3569 38.3854 13.7941 38.3854 14.2499C38.3854 14.7058 38.2043 15.1429 37.882 15.4653C37.5597 15.7876 37.1225 15.9687 36.6667 15.9687H32.0833C31.6275 15.9687 31.1903 15.7876 30.868 15.4653C30.5457 15.1429 30.3646 14.7058 30.3646 14.2499ZM32.0833 21.6978H36.6667C37.1225 21.6978 37.5597 21.8789 37.882 22.2012C38.2043 22.5236 38.3854 22.9607 38.3854 23.4166C38.3854 23.8724 38.2043 24.3096 37.882 24.6319C37.5597 24.9543 37.1225 25.1353 36.6667 25.1353H32.0833C31.6275 25.1353 31.1903 24.9543 30.868 24.6319C30.5457 24.3096 30.3646 23.8724 30.3646 23.4166C30.3646 22.9607 30.5457 22.5236 30.868 22.2012C31.1903 21.8789 31.6275 21.6978 32.0833 21.6978Z" fill="#124E38"/>
<path d="M31.5103 52.6354V36.0208C31.5103 34.4396 30.227 33.1562 28.6458 33.1562H26.3541C24.7728 33.1562 23.4895 34.4396 23.4895 36.0208V52.6354H31.5103Z" fill="#124E38"/>
</svg>
