<svg width="37" height="38" viewBox="0 0 37 38" fill="none" xmlns="http://www.w3.org/2000/svg">
<path d="M16.5986 20.8991C16.2642 20.5653 15.8656 20.3026 15.4269 20.127L1.5494 14.562C1.38371 14.4955 1.24232 14.3799 1.14421 14.2307C1.04609 14.0816 0.99596 13.906 1.00053 13.7275C1.0051 13.549 1.06416 13.3762 1.16978 13.2323C1.2754 13.0883 1.42252 12.9801 1.5914 12.9222L34.8414 1.54723C34.9965 1.49122 35.1643 1.48053 35.3252 1.51641C35.4861 1.55229 35.6335 1.63326 35.75 1.74984C35.8666 1.86641 35.9476 2.01378 35.9835 2.1747C36.0193 2.33561 36.0087 2.50342 35.9527 2.65848L24.5777 35.9085C24.5197 36.0774 24.4115 36.2245 24.2676 36.3301C24.1237 36.4357 23.9509 36.4948 23.7724 36.4993C23.5939 36.5039 23.4183 36.4538 23.2691 36.3557C23.12 36.2576 23.0044 36.1162 22.9379 35.9505L17.3729 22.0695C17.1965 21.6311 16.9331 21.233 16.5986 20.8991ZM16.5986 20.8991L35.7444 1.75723" stroke="#433F3E" stroke-width="2" stroke-linecap="round" stroke-linejoin="round"/>
</svg>
