<svg width="43" height="42" viewBox="0 0 43 42" fill="none" xmlns="http://www.w3.org/2000/svg">
<g clip-path="url(#clip0_84_235)">
<path d="M3.125 31.2374L0.5 41.9999L11.2625 39.3749L35.4125 15.2249L27.275 7.08742L3.125 31.2374ZM4.4375 39.3749L3.3875 38.0624L4.4375 32.8124L9.6875 38.0624L4.4375 39.3749ZM29.1125 11.5499L7.85 32.5499L6.275 30.9749L27.5375 9.97492L29.1125 11.5499ZM40.6625 1.83742C37.775 -1.05008 33.8375 0.524925 33.8375 0.524925L29.9 4.46243L38.0375 12.5999L41.975 8.66242C41.975 8.39992 43.55 4.72493 40.6625 1.83742ZM35.675 4.19992L34.3625 2.88742C35.9375 1.31242 37.25 2.62492 37.25 2.62492L35.675 4.19992Z" fill="#433F3E"/>
</g>
<defs>
<clipPath id="clip0_84_235">
<rect width="42" height="42" fill="white" transform="translate(0.5)"/>
</clipPath>
</defs>
</svg>
